<svg height="450pt" viewBox="-76 0 450 450.59344" width="450pt" xmlns="http://www.w3.org/2000/svg"><path d="m65.117188 22.355469c-1.949219 23.128906-26.046876 26.777343-26.046876 26.777343 20.691407.976563 25.847657 28.117188 25.847657 28.117188.441406-19.351562 26.644531-28.402344 26.644531-28.402344-19.628906-1.175781-26.445312-26.492187-26.445312-26.492187zm0 0" fill="#d7e057"/><path d="m91.742188 45.851562c-17.210938-1.03125-23.667969-24.046874-23.730469-24.28125-.382813-1.40625-1.726563-2.339843-3.164063-2.203124-1.449218.128906-2.597656 1.28125-2.71875 2.730468-1.71875 20.433594-22.625 23.929688-23.507812 24.066406-1.527344.230469-2.625 1.582032-2.546875 3.121094.082031 1.542969 1.316406 2.769532 2.855469 2.84375 18.054687.851563 22.996093 25.4375 23.046874 25.6875.273438 1.421875 1.515626 2.433594 2.941407 2.433594.085937 0 .167969-.003906.253906-.011719 1.527344-.125 2.714844-1.386719 2.75-2.917969.390625-17.019531 24.382813-25.554687 24.625-25.640624 1.351563-.464844 2.183594-1.828126 1.988281-3.242188-.199218-1.417969-1.367187-2.5-2.792968-2.585938zm-27.136719 20.695313c-2.710938-6.261719-7.417969-13.816406-15.171875-17.753906 5.859375-2.8125 12.816406-7.828125 16.402344-16.546875 3.101562 6.140625 8.402343 13.761718 16.667968 17.445312-6.011718 3.28125-13.84375 8.808594-17.898437 16.855469zm0 0" fill="#3a312a"/><path d="m21.71875 56.316406c-1.378906 16.355469-18.425781 18.9375-18.425781 18.9375 14.636719.691406 18.285156 19.890625 18.285156 19.890625.3125-13.6875 18.84375-20.089843 18.84375-20.089843-13.882813-.832032-18.703125-18.738282-18.703125-18.738282zm0 0" fill="#d7e057"/><path d="m40.601562 72.0625c-11.53125-.691406-15.941406-16.375-15.988281-16.53125-.378906-1.40625-1.703125-2.328125-3.164062-2.207031-1.449219.132812-2.597657 1.289062-2.71875 2.738281-1.15625 13.742188-15.292969 16.132812-15.882813 16.226562-1.527344.230469-2.625 1.582032-2.546875 3.121094.078125 1.542969 1.3125 2.769532 2.855469 2.839844 12.070312.570312 15.445312 17.292969 15.476562 17.457031.269532 1.425781 1.519532 2.4375 2.945313 2.4375.082031 0 .164063-.003906.25-.007812 1.527344-.128907 2.714844-1.386719 2.75-2.921875.261719-11.417969 16.664063-17.265625 16.824219-17.324219 1.351562-.464844 2.1875-1.824219 1.992187-3.242187-.195312-1.417969-1.363281-2.5-2.792969-2.585938zm-19.167968 13.585938c-1.847656-3.769532-4.679688-7.894532-8.894532-10.558594 3.710938-2.082032 7.394532-5.257813 9.742188-9.832032 2.113281 3.746094 5.308594 7.910157 9.882812 10.449219-3.703124 2.199219-7.980468 5.476563-10.730468 9.941407zm0 0" fill="#3a312a"/><path d="m21.71875 3c-1.378906 16.359375-18.425781 18.945312-18.425781 18.945312 14.636719.6875 18.285156 19.886719 18.285156 19.886719.3125-13.691406 18.84375-20.089843 18.84375-20.089843-13.882813-.832032-18.703125-18.742188-18.703125-18.742188zm0 0" fill="#d7e057"/><path d="m40.601562 18.746094c-11.53125-.691406-15.945312-16.371094-15.988281-16.53125-.378906-1.402344-1.703125-2.328125-3.164062-2.2031252-1.449219.1289062-2.597657 1.2851562-2.71875 2.7343752-1.15625 13.742187-15.292969 16.132812-15.882813 16.226562-1.527344.234375-2.625 1.582032-2.546875 3.121094.078125 1.542969 1.3125 2.773438 2.855469 2.84375 12.070312.566406 15.445312 17.289062 15.476562 17.453125.269532 1.425781 1.519532 2.441406 2.945313 2.441406.082031 0 .167969-.003906.25-.011719 1.53125-.125 2.714844-1.386718 2.753906-2.921874.257813-11.417969 16.660157-17.265626 16.824219-17.324219 1.351562-.464844 2.1875-1.824219 1.992188-3.242188-.199219-1.417969-1.367188-2.503906-2.796876-2.585937zm-19.167968 13.589844c-1.847656-3.769532-4.683594-7.894532-8.894532-10.558594 3.710938-2.082032 7.394532-5.261719 9.742188-9.832032 2.113281 3.746094 5.308594 7.90625 9.882812 10.445313-3.703124 2.199219-7.980468 5.480469-10.730468 9.945313zm0 0" fill="#3a312a"/><path d="m126.386719 19.914062v32.640626c1.679687-.480469 3.480469-.742188 5.320312-.742188h80.398438c1.839843 0 3.640625.261719 5.320312.742188v-32.640626zm0 0" fill="#87796f"/><path d="m217.429688 16.914062h-91.039063c-1.660156 0-3 1.34375-3 3v32.640626c0 .941406.441406 1.828124 1.191406 2.394531.753907.566406 1.726563.75 2.632813.488281 1.449218-.414062 2.960937-.625 4.496094-.625h80.398437c1.535156 0 3.046875.207031 4.496094.625.273437.078125.550781.117188.828125.117188.644531 0 1.277344-.210938 1.804687-.605469.75-.566407 1.195313-1.457031 1.195313-2.394531v-32.640626c-.003906-1.65625-1.347656-3-3.003906-3zm-3 32.015626c-.769532-.078126-1.542969-.117188-2.320313-.117188h-80.402344c-.777343 0-1.550781.039062-2.316406.117188v-26.015626h85.039063zm0 0" fill="#3a312a"/><path d="m221.5 3.148438h-99.183594c-4.628906 0-8.386718 3.753906-8.386718 8.382812s3.753906 8.382812 8.386718 8.382812h99.183594c4.628906 0 8.382812-3.753906 8.382812-8.382812s-3.753906-8.382812-8.382812-8.382812zm0 0" fill="#87796f"/><path d="m221.5.148438h-99.183594c-6.277344 0-11.382812 5.105468-11.382812 11.382812s5.105468 11.382812 11.382812 11.382812h99.183594c6.277344 0 11.382812-5.105468 11.382812-11.382812s-5.105468-11.382812-11.382812-11.382812zm0 16.769531h-99.183594c-2.96875 0-5.382812-2.417969-5.382812-5.382813 0-2.96875 2.414062-5.386718 5.382812-5.386718h99.183594c2.96875 0 5.382812 2.417968 5.382812 5.386718 0 2.964844-2.414062 5.382813-5.382812 5.382813zm0 0" fill="#3a312a"/><path d="m212.113281 51.8125h-80.414062c-10.605469 0-19.203125 8.601562-19.203125 19.207031v54.917969c.027344 0 .050781-.003906.078125-.003906v29.089844c-.027344 0-.050781-.003907-.078125-.003907v73.320313h118.824218v-157.320313c0-10.605469-8.597656-19.207031-19.207031-19.207031zm0 0" fill="#f16c7a"/><path d="m212.113281 48.8125h-80.410156c-12.246094 0-22.207031 9.964844-22.207031 22.207031v54.921875c0 1.65625 1.421875 2.996094 3.078125 2.996094 1.660156 0 2.960937-1.34375 2.960937-3 0-.160156-.015625-.324219-.039062-.480469v-54.4375c0-8.9375 7.269531-16.207031 16.207031-16.207031h80.410156c8.9375 0 16.210938 7.269531 16.210938 16.207031v154.320313h-112.828125v-69.339844c.109375-.300781.167968-.628906.167968-.96875 0-1.65625-1.25-2.996094-2.910156-2.996094-1.734375-.136718-3.261718 1.257813-3.261718 2.988282v73.320312c0 1.65625 1.34375 3 3 3h118.828124c1.660157 0 3-1.34375 3-3v-157.324219c0-12.242187-9.960937-22.207031-22.207031-22.207031zm0 0" fill="#3a312a"/><path d="m237.902344 228.34375h-131.988282c-4.726562 0-8.558593 3.832031-8.558593 8.558594v9.167968h149.101562v-9.167968c0-4.730469-3.832031-8.558594-8.554687-8.558594zm0 0" fill="#d7e057"/><path d="m237.902344 225.339844h-131.988282c-6.375 0-11.558593 5.1875-11.558593 11.558594v9.171874c0 1.65625 1.339843 3 3 3h149.101562c1.65625 0 3-1.34375 3-3v-9.171874c0-6.371094-5.183593-11.558594-11.554687-11.558594zm5.554687 17.730468h-143.101562v-6.171874c0-3.0625 2.496093-5.554688 5.558593-5.554688h131.988282c3.066406 0 5.554687 2.492188 5.554687 5.554688zm0 0" fill="#3a312a"/><path d="m257.070312 246.085938h-170.324218c-4.726563 0-8.558594 3.832031-8.558594 8.558593v.613281c0 4.726563 3.832031 8.558594 8.558594 8.558594h170.324218c4.722657 0 8.554688-3.832031 8.554688-8.558594v-.613281c0-4.726562-3.828125-8.558593-8.554688-8.558593zm0 0" fill="#d7e057"/><path d="m257.070312 243.085938h-170.324218c-6.375 0-11.558594 5.183593-11.558594 11.558593v.613281c0 6.375 5.183594 11.554688 11.558594 11.554688h170.324218c6.371094 0 11.554688-5.183594 11.554688-11.554688v-.613281c0-6.375-5.183594-11.558593-11.554688-11.558593zm5.554688 12.167968c0 3.066406-2.492188 5.558594-5.554688 5.558594h-170.324218c-3.066406 0-5.558594-2.492188-5.558594-5.558594v-.613281c0-3.0625 2.496094-5.554687 5.558594-5.554687h170.324218c3.066407 0 5.554688 2.492187 5.554688 5.554687zm0 0" fill="#3a312a"/><path d="m236.410156 284.578125h-128.558594c-5.375 0-9.734374 4.359375-9.734374 9.734375v87.121094c0 24.777344 20.085937 44.863281 44.867187 44.863281h58.296875c24.78125 0 44.867188-20.085937 44.867188-44.863281v-87.121094c-.003907-5.375-4.363282-9.734375-9.738282-9.734375zm0 0" fill="#8ac6dd"/><path d="m236.410156 281.578125h-49.140625c-1.660156 0-3 1.34375-3 3s1.339844 3 3 3h49.140625c3.710938 0 6.734375 3.023437 6.734375 6.734375v87.121094c0 23.085937-18.78125 41.867187-41.863281 41.867187h-58.296875c-23.085937 0-41.867187-18.78125-41.867187-41.867187v-87.121094c0-3.710938 3.023437-6.734375 6.734374-6.734375h51.363282c1.65625 0 3-1.34375 3-3s-1.34375-3-3-3h-51.363282c-7.019531 0-12.734374 5.714844-12.734374 12.734375v87.121094c0 26.394531 21.472656 47.867187 47.867187 47.867187h58.296875c26.390625 0 47.863281-21.472656 47.863281-47.867187v-87.121094c0-7.019531-5.714843-12.734375-12.734375-12.734375zm0 0" fill="#3a312a"/><path d="m76.578125 426.296875c0 11.761719 9.535156 21.296875 21.292969 21.296875h148.515625c11.761719 0 21.296875-9.535156 21.296875-21.296875zm0 0" fill="#87796f"/><path d="m267.683594 423.296875h-191.105469c-1.660156 0-3 1.34375-3 3 0 13.398437 10.898437 24.296875 24.292969 24.296875h148.515625c13.394531 0 24.296875-10.898438 24.296875-24.296875 0-1.65625-1.34375-3-3-3zm-21.296875 21.296875h-148.511719c-9.066406 0-16.617188-6.628906-18.050781-15.296875h184.613281c-1.433594 8.667969-8.984375 15.296875-18.050781 15.296875zm0 0" fill="#3a312a"/><path d="m247.535156 304.726562c-.46875 0-.929687.011719-1.390625.019532v15.363281c.460938-.023437.921875-.035156 1.390625-.035156 17.839844 0 32.355469 14.515625 32.355469 32.351562 0 17.828125-14.515625 32.34375-32.355469 32.34375-.503906 0-1.007812-.011719-1.511718-.042969-.382813 5.335938-1.707032 10.425782-3.816407 15.082032 1.746094.207031 3.53125.308594 5.328125.308594 26.304688 0 47.703125-21.398438 47.703125-47.691407 0-26.300781-21.398437-47.699219-47.703125-47.699219zm0 0" fill="#8ac6dd"/><path d="m247.535156 301.726562c-.425781 0-.84375.007813-1.453125.019532-1.632812.039062-2.9375 1.371094-2.9375 3v15.363281c0 .820313.335938 1.605469.929688 2.171875.589843.5625 1.371093.847656 2.210937.824219.414063-.019531.828125-.03125 1.25-.03125 16.1875 0 29.355469 13.167969 29.355469 29.355469 0 16.179687-13.167969 29.339843-29.355469 29.339843-.4375 0-.875-.007812-1.3125-.039062-1.660156-.097657-3.074218 1.136719-3.191406 2.78125-.351562 4.886719-1.546875 9.621093-3.554688 14.0625-.394531.875-.351562 1.878906.117188 2.710937.472656.832032 1.308594 1.390625 2.257812 1.503906 1.816407.214844 3.726563.328126 5.683594.328126 27.960938 0 50.703125-22.738282 50.703125-50.691407s-22.746093-50.699219-50.703125-50.699219zm0 95.390626c-.339844 0-.683594-.003907-1.019531-.011719 1.054687-3.03125 1.796875-6.160157 2.214844-9.355469 18.945312-.632812 34.160156-16.234375 34.160156-35.324219 0-18.953125-14.992187-34.472656-33.746094-35.316406v-9.355469c23.90625.847656 43.09375 20.5625 43.09375 44.671875 0 24.644531-20.054687 44.691407-44.703125 44.691407zm0 0" fill="#3a312a"/><path d="m199.449219 22.914062v25.898438h12.660156c.78125 0 1.539063.039062 2.300781.121094h.019532v-26.019532zm0 0" fill="#6b5b51"/><path d="m221.507812 6.152344h-14.980468c2.960937 0 5.378906 2.421875 5.378906 5.382812 0 2.957032-2.417969 5.378906-5.378906 5.378906h14.980468c2.960938 0 5.378907-2.421874 5.378907-5.378906 0-2.960937-2.417969-5.382812-5.378907-5.382812zm0 0" fill="#6b5b51"/><path d="m212.105469 54.8125h-14.980469c8.941406 0 16.222656 7.261719 16.222656 16.199219v154.320312h14.980469v-154.320312c0-8.9375-7.28125-16.199219-16.222656-16.199219zm0 0" fill="#ce4e61"/><path d="m237.90625 231.332031h-14.980469c3.0625 0 5.5625 2.5 5.5625 5.5625v6.179688h14.980469v-6.179688c0-3.0625-2.5-5.5625-5.5625-5.5625zm0 0" fill="#b9bc39"/><path d="m257.070312 249.09375h-14.980468c3.058594 0 5.558594 2.480469 5.558594 5.539062v.621094c0 3.058594-2.5 5.558594-5.558594 5.558594h14.980468c3.058594 0 5.558594-2.5 5.558594-5.558594v-.621094c-.003906-3.058593-2.503906-5.539062-5.558594-5.539062zm0 0" fill="#b9bc39"/><path d="m236.40625 287.574219h-14.980469c3.722657 0 6.742188 3.019531 6.742188 6.738281v87.121094c0 1.261718-.082031 2.519531-.199219 3.761718-.042969.476563-.101562.9375-.160156 1.417969-.101563.878907-.242188 1.738281-.402344 2.601563-.078125.4375-.179688.878906-.257812 1.320312-.203126.878906-.421876 1.738282-.679688 2.578125-.121094.421875-.242188.839844-.363281 1.238281-.277344.84375-.597657 1.683594-.917969 2.5-.160156.402344-.320312.800782-.480469 1.203126-6.441406 14.839843-21.21875 25.238281-38.398437 25.238281h14.976562c17.160156 0 31.941406-10.398438 38.402344-25.238281.160156-.402344.320312-.800782.480469-1.203126.320312-.816406.640625-1.65625.917969-2.5.121093-.398437.242187-.816406.359374-1.238281.261719-.839843.480469-1.699219.660157-2.578125.101562-.441406.203125-.882812.28125-1.320312.160156-.863282.300781-1.722656.398437-2.601563.0625-.480469.121094-.941406.160156-1.417969.121094-1.242187.203126-2.5.203126-3.761718v-87.121094c0-3.71875-3.023438-6.738281-6.742188-6.738281zm0 0" fill="#68a8bc"/><path d="m249.46875 429.292969c-1.441406 8.679687-9 15.300781-18.0625 15.300781h14.980469c9.058593 0 16.621093-6.621094 18.039062-15.300781zm0 0" fill="#6b5b51"/></svg>